<svg width="25" height="25" viewBox="0 0 25 25" fill="none" xmlns="http://www.w3.org/2000/svg">
<g clip-path="url(#clip0)">
<path d="M12.5 25.0017C19.4036 25.0017 25 19.4053 25 12.5017C25 5.59815 19.4036 0.00170898 12.5 0.00170898C5.59644 0.00170898 0 5.59815 0 12.5017C0 19.4053 5.59644 25.0017 12.5 25.0017Z" fill="white"/>
<path d="M17.3659 16.1159L17.9196 12.5018H14.4531V10.1568C14.4531 9.16891 14.9365 8.20386 16.4904 8.20386H18.0672V5.12764C18.0672 5.12764 16.6363 4.8833 15.2688 4.8833C12.414 4.8833 10.5472 6.61302 10.5472 9.74724V12.5018H7.37256V16.1159H10.5472V24.8506C11.1835 24.9508 11.8357 25.0018 12.5002 25.0018C13.1646 25.0018 13.8168 24.949 14.4531 24.8506V16.1159H17.3659Z" fill="black"/>
</g>
<defs>
<clipPath id="clip0">
<rect width="25" height="25" fill="white"/>
</clipPath>
</defs>
</svg>
