<svg width="146" height="68" viewBox="0 0 146 68" fill="none" xmlns="http://www.w3.org/2000/svg">
<path d="M7.56 18.61V27.01L10.17 27.28V28H0.99V27.28L3.6 27.01V8.95L0.99 8.62V7.93H16.29V12.22H15.33L14.19 9.04L7.56 8.95V17.53H13.41L14.34 15.31H15.21V20.89H14.31L13.41 18.61H7.56ZM24.4545 16.9C24.7945 15.82 25.4145 14.9 26.3145 14.14C27.2345 13.38 28.0645 13 28.8045 13C29.5645 13 30.0745 13.19 30.3345 13.57C30.5945 13.93 30.7245 14.23 30.7245 14.47C30.7245 15.29 30.4245 15.88 29.8245 16.24C29.4245 15.92 28.8245 15.76 28.0245 15.76C27.2445 15.76 26.4645 16.01 25.6845 16.51C24.9045 16.99 24.5145 17.52 24.5145 18.1V27.13L27.2145 27.31V28H18.8445V27.31L20.8245 27.16V14.35L18.3945 14.23V13.54L24.5145 13.21L24.3345 16.9H24.4545ZM41.093 20.98C38.773 20.98 37.313 21.59 36.713 22.81C36.453 23.33 36.323 23.98 36.323 24.76C36.323 26.1 36.783 26.88 37.703 27.1C37.843 27.14 37.993 27.16 38.153 27.16C38.793 27.16 39.433 26.83 40.073 26.17C40.713 25.49 41.053 24.62 41.093 23.56V20.98ZM36.293 18.04C35.853 18.34 35.393 18.49 34.913 18.49C34.433 18.49 34.023 18.33 33.683 18.01C33.343 17.69 33.173 17.22 33.173 16.6C33.173 15.96 33.363 15.39 33.743 14.89C34.123 14.39 34.613 14.02 35.213 13.78C36.393 13.28 37.513 13.03 38.573 13.03C40.933 13.03 42.543 13.45 43.403 14.29C44.263 15.11 44.693 16.38 44.693 18.1V27.13L47.213 27.31V27.97L41.483 28.33L41.213 25.81C40.273 27.51 38.653 28.36 36.353 28.36C35.313 28.36 34.413 28.05 33.653 27.43C32.913 26.79 32.543 25.9 32.543 24.76C32.563 23.24 33.323 22.1 34.823 21.34C36.323 20.56 38.413 20.17 41.093 20.17V17.59C41.093 16.37 40.923 15.43 40.583 14.77C40.243 14.11 39.613 13.78 38.693 13.78C37.773 13.78 37.083 14.16 36.623 14.92C36.323 15.42 36.173 15.95 36.173 16.51C36.173 17.07 36.213 17.58 36.293 18.04ZM60.4289 27.13L60.6089 17.62C60.6089 16.44 60.4589 15.58 60.1589 15.04C59.8589 14.5 59.2589 14.23 58.3589 14.23C57.4589 14.23 56.5789 14.77 55.7189 15.85C54.8789 16.91 54.4389 17.83 54.3989 18.61V27.13L56.6489 27.31V28H48.6089V27.31L50.5889 27.13V14.35L48.1289 14.23V13.6L54.2789 13.24L54.1289 16.3H54.4289C54.9689 15.3 55.6989 14.53 56.6189 13.99C57.5389 13.43 58.5289 13.15 59.5889 13.15C62.7889 13.15 64.3889 14.69 64.3889 17.77C64.3889 19.99 64.3189 23.11 64.1789 27.13L66.2489 27.31V28H58.9889V27.31L60.4289 27.13ZM78.6005 18.22C78.7005 17.82 78.7505 17.37 78.7505 16.87C78.7505 16.35 78.6005 15.82 78.3005 15.28C77.8605 14.4 77.1905 13.96 76.2905 13.96C73.8905 13.96 72.6905 16.22 72.6905 20.74C72.6905 25.24 73.9205 27.49 76.3805 27.49C78.2405 27.49 79.7305 26.59 80.8505 24.79C81.2905 24.93 81.5105 25.15 81.5105 25.45C81.5105 25.73 81.3205 26.09 80.9405 26.53C80.5805 26.95 79.9405 27.36 79.0205 27.76C78.1205 28.14 77.0805 28.33 75.9005 28.33C73.6405 28.33 71.8505 27.64 70.5305 26.26C69.2305 24.86 68.5805 23 68.5805 20.68C68.5805 18.34 69.2605 16.48 70.6205 15.1C71.9805 13.72 73.8905 13.03 76.3505 13.03C77.1105 13.03 77.8605 13.13 78.6005 13.33C79.3405 13.51 80.0405 13.91 80.7005 14.53C81.3605 15.15 81.6905 15.9 81.6905 16.78C81.6905 17.64 81.3005 18.2 80.5205 18.46C80.2405 18.56 79.9305 18.61 79.5905 18.61C79.2505 18.61 78.9205 18.48 78.6005 18.22ZM94.4341 17.53C94.4341 15.09 93.5841 13.87 91.8841 13.87C90.1041 13.87 89.0241 15.43 88.6441 18.55H94.3741C94.4141 18.15 94.4341 17.81 94.4341 17.53ZM91.6141 28.33C89.4741 28.33 87.7341 27.63 86.3941 26.23C85.0741 24.83 84.4141 22.98 84.4141 20.68C84.4141 18.38 85.1041 16.53 86.4841 15.13C87.8841 13.73 89.6541 13.03 91.7941 13.03C93.9341 13.03 95.5341 13.49 96.5941 14.41C97.6541 15.31 98.1841 16.57 98.1841 18.19C98.1841 18.65 98.1441 19.13 98.0641 19.63H88.5541V20.68C88.5541 22.92 88.8341 24.62 89.3941 25.78C89.9541 26.92 90.7941 27.49 91.9141 27.49C93.0541 27.49 94.0841 27.26 95.0041 26.8C95.9441 26.32 96.6741 25.65 97.1941 24.79C97.6341 24.93 97.8541 25.14 97.8541 25.42C97.8541 25.92 97.3841 26.5 96.4441 27.16C95.9841 27.48 95.3241 27.76 94.4641 28C93.6241 28.22 92.6741 28.33 91.6141 28.33ZM106.678 27.58C107.378 27.58 107.958 27.36 108.418 26.92C108.878 26.46 109.108 25.72 109.108 24.7C109.108 23.88 108.768 23.26 108.088 22.84C107.568 22.52 106.898 22.21 106.078 21.91C105.278 21.59 104.658 21.32 104.218 21.1C103.798 20.88 103.328 20.59 102.808 20.23C101.788 19.51 101.278 18.53 101.278 17.29C101.278 16.05 101.788 15.03 102.808 14.23C103.848 13.43 105.358 13.03 107.338 13.03C108.578 13.03 109.628 13.3 110.488 13.84C111.348 14.36 111.778 15.02 111.778 15.82C111.778 16.62 111.438 17.2 110.758 17.56C110.438 17.72 110.118 17.8 109.798 17.8L108.718 17.47C108.838 16.85 108.898 16.29 108.898 15.79C108.898 15.27 108.738 14.81 108.418 14.41C108.098 13.99 107.618 13.78 106.978 13.78C105.418 13.78 104.638 14.72 104.638 16.6C104.638 17.46 104.968 18.1 105.628 18.52C106.128 18.86 106.768 19.17 107.548 19.45C108.328 19.71 108.938 19.94 109.378 20.14C109.838 20.34 110.328 20.62 110.848 20.98C111.888 21.66 112.408 22.67 112.408 24.01C112.408 25.33 111.858 26.38 110.758 27.16C109.658 27.94 108.208 28.33 106.408 28.33C104.408 28.33 102.928 28 101.968 27.34C101.408 26.94 101.128 26.45 101.128 25.87C101.128 25.29 101.318 24.82 101.698 24.46C102.098 24.1 102.648 23.91 103.348 23.89C103.488 26.35 104.598 27.58 106.678 27.58ZM125.313 18.22C125.413 17.82 125.463 17.37 125.463 16.87C125.463 16.35 125.313 15.82 125.013 15.28C124.573 14.4 123.903 13.96 123.003 13.96C120.603 13.96 119.403 16.22 119.403 20.74C119.403 25.24 120.633 27.49 123.093 27.49C124.953 27.49 126.443 26.59 127.563 24.79C128.003 24.93 128.223 25.15 128.223 25.45C128.223 25.73 128.033 26.09 127.653 26.53C127.293 26.95 126.653 27.36 125.733 27.76C124.833 28.14 123.793 28.33 122.613 28.33C120.353 28.33 118.563 27.64 117.243 26.26C115.943 24.86 115.293 23 115.293 20.68C115.293 18.34 115.973 16.48 117.333 15.1C118.693 13.72 120.603 13.03 123.063 13.03C123.823 13.03 124.573 13.13 125.313 13.33C126.053 13.51 126.753 13.91 127.413 14.53C128.073 15.15 128.403 15.9 128.403 16.78C128.403 17.64 128.013 18.2 127.233 18.46C126.953 18.56 126.643 18.61 126.303 18.61C125.963 18.61 125.633 18.48 125.313 18.22ZM139.556 20.98C137.236 20.98 135.776 21.59 135.176 22.81C134.916 23.33 134.786 23.98 134.786 24.76C134.786 26.1 135.246 26.88 136.166 27.1C136.306 27.14 136.456 27.16 136.616 27.16C137.256 27.16 137.896 26.83 138.536 26.17C139.176 25.49 139.516 24.62 139.556 23.56V20.98ZM134.756 18.04C134.316 18.34 133.856 18.49 133.376 18.49C132.896 18.49 132.486 18.33 132.146 18.01C131.806 17.69 131.636 17.22 131.636 16.6C131.636 15.96 131.826 15.39 132.206 14.89C132.586 14.39 133.076 14.02 133.676 13.78C134.856 13.28 135.976 13.03 137.036 13.03C139.396 13.03 141.006 13.45 141.866 14.29C142.726 15.11 143.156 16.38 143.156 18.1V27.13L145.676 27.31V27.97L139.946 28.33L139.676 25.81C138.736 27.51 137.116 28.36 134.816 28.36C133.776 28.36 132.876 28.05 132.116 27.43C131.376 26.79 131.006 25.9 131.006 24.76C131.026 23.24 131.786 22.1 133.286 21.34C134.786 20.56 136.876 20.17 139.556 20.17V17.59C139.556 16.37 139.386 15.43 139.046 14.77C138.706 14.11 138.076 13.78 137.156 13.78C136.236 13.78 135.546 14.16 135.086 14.92C134.786 15.42 134.636 15.95 134.636 16.51C134.636 17.07 134.676 17.58 134.756 18.04Z" fill="#515151"/>
<path d="M27.17 38.75L33.77 39.02L33.95 44.48H32.87L31.85 40.55C30.47 40.09 29.14 39.86 27.86 39.86C25.48 39.86 23.55 40.65 22.07 42.23C20.59 43.79 19.85 46.11 19.85 49.19C19.85 52.25 20.57 54.5 22.01 55.94C23.45 57.38 25.31 58.1 27.59 58.1C28.41 58.1 29.3 58.04 30.26 57.92V51.23L27.77 50.96V50.24H35.9V50.96L34.1 51.23V58.37C31.6 58.91 29.41 59.18 27.53 59.18C25.67 59.18 24.08 59.03 22.76 58.73C21.44 58.41 20.2 57.9 19.04 57.2C17.88 56.5 16.97 55.49 16.31 54.17C15.67 52.85 15.35 51.27 15.35 49.43C15.35 47.59 15.68 45.97 16.34 44.57C17.02 43.15 17.93 42.03 19.07 41.21C21.35 39.57 24.05 38.75 27.17 38.75ZM47.7465 51.98C45.4265 51.98 43.9665 52.59 43.3665 53.81C43.1065 54.33 42.9765 54.98 42.9765 55.76C42.9765 57.1 43.4365 57.88 44.3565 58.1C44.4965 58.14 44.6465 58.16 44.8065 58.16C45.4465 58.16 46.0865 57.83 46.7265 57.17C47.3665 56.49 47.7065 55.62 47.7465 54.56V51.98ZM42.9465 49.04C42.5065 49.34 42.0465 49.49 41.5665 49.49C41.0865 49.49 40.6765 49.33 40.3365 49.01C39.9965 48.69 39.8265 48.22 39.8265 47.6C39.8265 46.96 40.0165 46.39 40.3965 45.89C40.7765 45.39 41.2665 45.02 41.8665 44.78C43.0465 44.28 44.1665 44.03 45.2265 44.03C47.5865 44.03 49.1965 44.45 50.0565 45.29C50.9165 46.11 51.3465 47.38 51.3465 49.1V58.13L53.8665 58.31V58.97L48.1365 59.33L47.8665 56.81C46.9265 58.51 45.3065 59.36 43.0065 59.36C41.9665 59.36 41.0665 59.05 40.3065 58.43C39.5665 57.79 39.1965 56.9 39.1965 55.76C39.2165 54.24 39.9765 53.1 41.4765 52.34C42.9765 51.56 45.0665 51.17 47.7465 51.17V48.59C47.7465 47.37 47.5765 46.43 47.2365 45.77C46.8965 45.11 46.2665 44.78 45.3465 44.78C44.4265 44.78 43.7365 45.16 43.2765 45.92C42.9765 46.42 42.8265 46.95 42.8265 47.51C42.8265 48.07 42.8665 48.58 42.9465 49.04ZM63.5724 59H55.8324V58.31L57.7824 58.13V37.46L55.2024 37.37V36.65L61.6224 35.96V58.13L63.5724 58.31V59ZM75.388 44.36H81.148V45.08L79.018 45.71L74.158 59H72.538L66.928 45.29L65.578 45.08V44.36H72.358V45.08L70.588 45.29L74.428 55.04L77.758 45.71L75.388 45.11V44.36ZM91.8559 51.98C89.5359 51.98 88.0759 52.59 87.4759 53.81C87.2159 54.33 87.0859 54.98 87.0859 55.76C87.0859 57.1 87.5459 57.88 88.4659 58.1C88.6059 58.14 88.7559 58.16 88.9159 58.16C89.5559 58.16 90.1959 57.83 90.8359 57.17C91.4759 56.49 91.8159 55.62 91.8559 54.56V51.98ZM87.0559 49.04C86.6159 49.34 86.1559 49.49 85.6759 49.49C85.1959 49.49 84.7859 49.33 84.4459 49.01C84.1059 48.69 83.9359 48.22 83.9359 47.6C83.9359 46.96 84.1259 46.39 84.5059 45.89C84.8859 45.39 85.3759 45.02 85.9759 44.78C87.1559 44.28 88.2759 44.03 89.3359 44.03C91.6959 44.03 93.3059 44.45 94.1659 45.29C95.0259 46.11 95.4559 47.38 95.4559 49.1V58.13L97.9759 58.31V58.97L92.2459 59.33L91.9759 56.81C91.0359 58.51 89.4159 59.36 87.1159 59.36C86.0759 59.36 85.1759 59.05 84.4159 58.43C83.6759 57.79 83.3059 56.9 83.3059 55.76C83.3259 54.24 84.0859 53.1 85.5859 52.34C87.0859 51.56 89.1759 51.17 91.8559 51.17V48.59C91.8559 47.37 91.6859 46.43 91.3459 45.77C91.0059 45.11 90.3759 44.78 89.4559 44.78C88.5359 44.78 87.8459 45.16 87.3859 45.92C87.0859 46.42 86.9359 46.95 86.9359 47.51C86.9359 48.07 86.9759 48.58 87.0559 49.04ZM112.092 58.13L112.272 48.62C112.272 47.44 112.122 46.58 111.822 46.04C111.522 45.5 110.922 45.23 110.022 45.23C109.122 45.23 108.242 45.77 107.382 46.85C106.542 47.91 106.102 48.83 106.062 49.61V58.13L108.312 58.31V59H100.272V58.31L102.252 58.13V45.35L99.7918 45.23V44.6L105.942 44.24L105.792 47.3H106.092C106.632 46.3 107.362 45.53 108.282 44.99C109.202 44.43 110.192 44.15 111.252 44.15C114.452 44.15 116.052 45.69 116.052 48.77C116.052 50.99 115.982 54.11 115.842 58.13L117.912 58.31V59H110.652V58.31L112.092 58.13ZM128.673 59H120.933V58.31L122.883 58.13V45.35L120.303 45.2V44.57L126.723 44.18V58.13L128.673 58.31V59ZM126.933 39.14C126.933 39.74 126.713 40.26 126.273 40.7C125.853 41.14 125.323 41.36 124.683 41.36C124.043 41.36 123.503 41.15 123.063 40.73C122.643 40.29 122.433 39.76 122.433 39.14C122.433 38.5 122.653 37.96 123.093 37.52C123.533 37.06 124.063 36.83 124.683 36.83C125.303 36.83 125.833 37.06 126.273 37.52C126.713 37.98 126.933 38.52 126.933 39.14Z" fill="#515151"/>
</svg>
