<svg width="25" height="25" viewBox="0 0 25 25" fill="none" xmlns="http://www.w3.org/2000/svg">
<path d="M12.4827 0.9375C6.09378 0.9375 0.920166 6.11111 0.920166 12.5C0.920166 17.3958 3.95836 21.5799 8.26392 23.2639C8.15975 22.3438 8.07294 20.9549 8.29864 19.9479C8.50697 19.0451 9.6528 14.2014 9.6528 14.2014C9.6528 14.2014 9.30558 13.5069 9.30558 12.4826C9.30558 10.8681 10.2431 9.67014 11.3889 9.67014C12.3785 9.67014 12.8472 10.4167 12.8472 11.3021C12.8472 12.2917 12.2222 13.7847 11.8924 15.1563C11.6146 16.3021 12.4653 17.2396 13.6111 17.2396C15.6597 17.2396 17.2396 15.0694 17.2396 11.9444C17.2396 9.18403 15.2431 7.23958 12.4132 7.23958C9.13197 7.23958 7.18753 9.70486 7.18753 12.2569C7.18753 13.2465 7.56947 14.3229 8.05558 14.8958C8.14239 15.0174 8.15975 15.1042 8.14239 15.2257C8.05558 15.5903 7.86461 16.3715 7.82989 16.5278C7.7778 16.7361 7.65628 16.7882 7.44794 16.684C6.00697 16.0069 5.10419 13.9063 5.10419 12.2049C5.10419 8.55903 7.76044 5.20833 12.7431 5.20833C16.7535 5.20833 19.8611 8.07292 19.8611 11.875C19.8611 15.8507 17.3438 19.0625 13.8716 19.0625C12.7084 19.0625 11.5972 18.4549 11.2153 17.7431C11.2153 17.7431 10.6424 19.9479 10.5035 20.4861C10.2431 21.4931 9.53128 22.7431 9.06253 23.5243C10.1389 23.8542 11.2847 24.0451 12.4827 24.0451C18.8716 24.0451 24.0452 18.8715 24.0452 12.4826C24.0452 6.11111 18.8716 0.9375 12.4827 0.9375Z" fill="white"/>
</svg>
