<svg width="31" height="40" viewBox="0 0 31 40" fill="none" xmlns="http://www.w3.org/2000/svg">
<path fill-rule="evenodd" clip-rule="evenodd" d="M15.2017 0.65416C10.4404 1.00148 7.54529 3.75897 6.70258 7.94528H3.41603C3.16979 7.94484 2.94228 8.15946 2.92688 8.40675L1.00082 34.4333C0.950091 36.4673 3.27683 38.6198 4.91393 38.4942C11.9801 39.1597 19.032 39.1774 26.1005 38.4942C28.0263 38.3745 30.0626 35.8968 29.9985 33.9103L27.614 8.39137C27.5915 8.1494 27.3664 7.94424 27.1249 7.94528H24.0677C22.7498 3.2859 18.9552 0.745719 15.2017 0.65416ZM15.1709 1.63861C18.4421 1.7184 21.8058 3.81815 23.0585 7.94528H7.68069C8.43044 4.23191 11.8203 1.6091 15.1709 1.63861ZM3.87443 8.92976H6.54948C6.42592 10.0206 6.41976 11.2135 6.56464 12.5138C6.73671 13.2358 7.57662 12.9279 7.54294 12.4061C7.40036 11.1278 7.40221 9.96637 7.52779 8.92976H23.3184C23.5341 9.97398 23.6141 11.1221 23.5477 12.3907C23.623 13.1422 24.486 13.0078 24.526 12.4523C24.5924 11.1828 24.5069 10.0048 24.2967 8.92976H26.6814L29.0202 33.9257C28.9022 35.7809 27.6763 37.167 25.9323 37.5251C18.9618 38.1944 12.0091 38.1797 5.03618 37.5251C3.5457 37.4977 2.10064 36.1995 1.97894 34.4179L3.87443 8.92976Z" fill="#515151" stroke="#515151"/>
</svg>
